<?xml version="1.0" encoding="iso-8859-1"?>
<!-- Generator: Adobe Illustrator 19.0.0, SVG Export Plug-In . SVG Version: 6.00 Build 0)  -->
<svg version="1.1" id="Capa_1" xmlns="http://www.w3.org/2000/svg" xmlns:xlink="http://www.w3.org/1999/xlink" x="0px" y="0px"
	 viewBox="0 0 400 400" style="enable-background:new 0 0 400 400;" xml:space="preserve">
<g>
	<g>
		<path style="fill:#D66D5D;" d="M400,318.644C400,363.577,364.02,400,319.633,400H80.365C35.98,400,0,363.577,0,318.644V81.356
			C0,36.423,35.98,0,80.365,0h239.268C364.02,0,400,36.423,400,81.356V318.644z"/>
		<path style="fill:#CE6352;" d="M400,318.644V182.595l-120.028-75.399L56.141,282.218L205.211,400h114.422
			C364.018,400,400,363.574,400,318.644z"/>
		<g>
			<rect x="138.416" y="204.733" style="fill:#5D505B;" width="167.352" height="31.769"/>
			<rect x="138.416" y="204.733" style="opacity:0.38;fill:#5D505B;enable-background:new    ;" width="167.352" height="31.769"/>
			<rect x="208.549" y="142.115" style="fill:#5D505B;" width="82.832" height="25.234"/>
			<rect x="208.549" y="142.115" style="opacity:0.38;fill:#5D505B;enable-background:new    ;" width="82.832" height="25.234"/>
			<rect x="138.416" y="167.349" style="fill:#5D505B;" width="85.874" height="30.493"/>
			<path style="fill:#727145;" d="M94.459,233.971c-14.699,0-26.611,12.063-26.611,26.947c0,14.872,11.913,26.941,26.611,26.941
				c14.691,0,26.611-12.069,26.611-26.941C121.07,246.034,109.15,233.971,94.459,233.971z"/>
			<path style="fill:#5D505B;" d="M94.459,233.971c-14.699,0-26.611,12.063-26.611,26.947c0,14.872,11.913,26.941,26.611,26.941
				c14.691,0,26.611-12.069,26.611-26.941C121.07,246.034,109.15,233.971,94.459,233.971z"/>
			<path style="fill:#5D505B;" d="M165.029,233.971c-14.701,0-26.613,12.063-26.613,26.947c0,14.872,11.913,26.941,26.613,26.941
				c14.689,0,26.612-12.069,26.612-26.941C191.641,246.034,179.718,233.971,165.029,233.971z"/>
			<path style="fill:#5D505B;" d="M235.598,233.971c-14.699,0-26.613,12.063-26.613,26.947c0,14.872,11.914,26.941,26.613,26.941
				c14.688,0,26.611-12.069,26.611-26.941C262.209,246.034,250.286,233.971,235.598,233.971z"/>
			<path style="fill:#5D505B;" d="M306.166,233.971c-14.699,0-26.613,12.063-26.613,26.947c0,14.872,11.914,26.941,26.613,26.941
				c14.688,0,26.611-12.069,26.611-26.941C332.777,246.034,320.854,233.971,306.166,233.971z"/>
			<path style="fill:#8A884E;" d="M117.454,218.215c1.24,0,2.513-0.006,3.814-0.023c1.357-0.014,2.75-0.031,4.162-0.031h197.773
				c0.904,0,1.633-0.738,1.633-1.65v-55.067c0-0.914-0.729-1.651-1.633-1.651H148.556c-31.23,0-51.952,26.025-51.952,43.232
				C96.604,217.06,106.466,218.215,117.454,218.215z M193.348,186.71l5.31-14.178c0.67-1.782,2.632-2.675,4.386-2.002
				c1.761,0.674,2.647,2.66,1.98,4.44l-5.312,14.181c-0.666,1.78-2.634,2.679-4.388,2.009
				C193.563,190.48,192.682,188.49,193.348,186.71z M178.392,186.71l5.308-14.178c0.666-1.782,2.628-2.675,4.386-2.002
				c1.76,0.674,2.646,2.66,1.978,4.44l-5.31,14.181c-0.664,1.78-2.634,2.679-4.394,2.009
				C178.605,190.48,177.721,188.49,178.392,186.71z M163.428,186.71l5.312-14.178c0.666-1.782,2.628-2.675,4.393-2.002
				c1.758,0.674,2.64,2.66,1.974,4.44l-5.31,14.181c-0.666,1.78-2.63,2.679-4.39,2.009
				C163.649,190.48,162.763,188.49,163.428,186.71z M148.472,186.71l5.31-14.178c0.668-1.782,2.63-2.675,4.386-2.002
				c1.764,0.674,2.646,2.66,1.98,4.44l-5.313,14.181c-0.664,1.78-2.628,2.679-4.388,2.009
				C148.689,190.48,147.803,188.49,148.472,186.71z"/>
			<path style="fill:none;" d="M188.085,170.53c-1.758-0.672-3.72,0.22-4.386,2.002l-5.308,14.178
				c-0.67,1.78,0.214,3.77,1.968,4.449c1.76,0.67,3.73-0.229,4.394-2.009l5.31-14.181
				C190.732,173.19,189.846,171.204,188.085,170.53z"/>
			<path style="fill:none;" d="M158.167,170.53c-1.756-0.672-3.718,0.22-4.386,2.002l-5.31,14.178
				c-0.668,1.78,0.218,3.77,1.974,4.449c1.76,0.67,3.724-0.229,4.388-2.009l5.313-14.181
				C160.814,173.19,159.932,171.204,158.167,170.53z"/>
			<path style="fill:none;" d="M203.043,170.53c-1.754-0.672-3.715,0.22-4.386,2.002l-5.31,14.178
				c-0.666,1.78,0.216,3.77,1.976,4.449c1.754,0.67,3.722-0.229,4.388-2.009l5.312-14.181
				C205.69,173.19,204.804,171.204,203.043,170.53z"/>
			<path style="fill:none;" d="M173.132,170.53c-1.765-0.672-3.727,0.22-4.393,2.002l-5.312,14.178
				c-0.665,1.78,0.222,3.77,1.978,4.449c1.76,0.67,3.724-0.229,4.39-2.009l5.31-14.181
				C175.772,173.19,174.89,171.204,173.132,170.53z"/>
			<path style="fill:#C3E05E;" d="M324.836,161.443c0-0.914-0.729-1.651-1.633-1.651H148.556c-31.23,0-51.952,26.025-51.952,43.232
				c0,0.604,0.043,1.151,0.076,1.709h228.156V161.443z M160.147,174.97l-5.313,14.181c-0.664,1.78-2.628,2.679-4.388,2.009
				c-1.756-0.679-2.643-2.669-1.974-4.449l5.31-14.178c0.668-1.782,2.63-2.675,4.386-2.002
				C159.932,171.204,160.814,173.19,160.147,174.97z M175.105,174.97l-5.31,14.181c-0.666,1.78-2.63,2.679-4.39,2.009
				c-1.756-0.679-2.643-2.669-1.978-4.449l5.312-14.178c0.666-1.782,2.628-2.675,4.393-2.002
				C174.89,171.204,175.772,173.19,175.105,174.97z M190.063,174.97l-5.31,14.181c-0.664,1.78-2.634,2.679-4.394,2.009
				c-1.754-0.679-2.639-2.669-1.968-4.449l5.308-14.178c0.666-1.782,2.628-2.675,4.386-2.002
				C189.846,171.204,190.732,173.19,190.063,174.97z M205.023,174.97l-5.312,14.181c-0.666,1.78-2.634,2.679-4.388,2.009
				c-1.76-0.679-2.642-2.669-1.976-4.449l5.31-14.178c0.67-1.782,2.632-2.675,4.386-2.002
				C204.804,171.204,205.69,173.19,205.023,174.97z"/>
			<path style="fill:#8A884E;" d="M125.43,218.16h197.773c0.904,0,1.633-0.738,1.633-1.65v-11.776H96.68
				c0.798,12.393,10.259,13.481,20.773,13.481c1.24,0,2.513-0.006,3.814-0.023C122.625,218.178,124.018,218.16,125.43,218.16z"/>
			<path style="fill:#5D505B;" d="M125.43,218.16h197.773c0.904,0,1.633-0.738,1.633-1.65v-11.776H96.68
				c0.798,12.393,10.259,13.481,20.773,13.481c1.24,0,2.513-0.006,3.814-0.023C122.625,218.178,124.018,218.16,125.43,218.16z"/>
			<path style="fill:#C3E05E;" d="M103.649,95.37l102.5,28.413c-4.316,7.596-6.8,16.397-6.8,25.773c0,2.281,1.826,4.132,4.078,4.132
				h94.268c2.25,0,4.076-1.851,4.076-4.132c0-28.588-22.974-51.84-51.214-51.84c-13.403,0-25.614,5.248-34.753,13.81L107.408,81.477
				c-3.792-1.053-7.706,1.208-8.742,5.042C97.628,90.36,99.855,94.319,103.649,95.37z"/>
			<path style="fill:#5D505B;" d="M108.928,77.886c-1.08-0.341-2.194-0.516-3.317-0.516c-4.875,0-9.132,3.168-10.588,7.883
				c-0.886,2.866-0.615,5.906,0.759,8.566c1.376,2.658,3.689,4.615,6.521,5.51c0.086,0.027,0.172,0.042,0.259,0.042
				c0.14,0,0.282-0.035,0.407-0.1c0.206-0.11,0.36-0.298,0.43-0.521l6.105-19.757C109.647,78.527,109.391,78.032,108.928,77.886z"/>
			<path style="opacity:0.38;fill:#5D505B;enable-background:new    ;" d="M94.459,233.971c-14.699,0-26.611,12.063-26.611,26.947
				c0,14.872,11.913,26.941,26.611,26.941c14.691,0,26.611-12.069,26.611-26.941C121.07,246.034,109.15,233.971,94.459,233.971z"/>
			<path style="opacity:0.38;fill:#5D505B;enable-background:new    ;" d="M165.029,233.971c-14.701,0-26.613,12.063-26.613,26.947
				c0,14.872,11.913,26.941,26.613,26.941c14.689,0,26.612-12.069,26.612-26.941C191.641,246.034,179.718,233.971,165.029,233.971z"
				/>
			<path style="opacity:0.38;fill:#5D505B;enable-background:new    ;" d="M235.598,233.971c-14.699,0-26.613,12.063-26.613,26.947
				c0,14.872,11.914,26.941,26.613,26.941c14.688,0,26.611-12.069,26.611-26.941C262.209,246.034,250.286,233.971,235.598,233.971z"
				/>
			<path style="opacity:0.38;fill:#5D505B;enable-background:new    ;" d="M306.166,233.971c-14.699,0-26.613,12.063-26.613,26.947
				c0,14.872,11.914,26.941,26.613,26.941c14.688,0,26.611-12.069,26.611-26.941C332.777,246.034,320.854,233.971,306.166,233.971z"
				/>
			<path style="opacity:0.38;fill:#5D505B;enable-background:new    ;" d="M108.928,77.886c-1.08-0.341-2.194-0.516-3.317-0.516
				c-4.875,0-9.132,3.168-10.588,7.883c-0.886,2.866-0.615,5.906,0.759,8.566c1.376,2.658,3.689,4.615,6.521,5.51
				c0.086,0.027,0.172,0.042,0.259,0.042c0.14,0,0.282-0.035,0.407-0.1c0.206-0.11,0.36-0.298,0.43-0.521l6.105-19.757
				C109.647,78.527,109.391,78.032,108.928,77.886z"/>
			<path style="fill:#7996B1;" d="M299.207,133.403c-6.504-20.028-24.75-34.702-46.463-35.63v35.63H299.207z"/>
			<path style="fill:#FFFDFC;" d="M260.745,98.757l-8.001,5.021v7.34l15.961-10.013C266.141,100.119,263.486,99.319,260.745,98.757z
				"/>
			<path style="fill:#FFFDFC;" d="M274.074,103.562l-21.33,13.431v7.349l27.228-17.145
				C278.095,105.856,276.129,104.64,274.074,103.562z"/>
			<path style="fill:#C3E05E;" d="M312.599,225.553H87.404c-20.278,0-36.721,16.646-36.721,37.168
				c0,20.53,16.443,37.171,36.721,37.171h225.195c20.277,0,36.718-16.641,36.718-37.171
				C349.316,242.198,332.876,225.553,312.599,225.553z M94.235,285.849c-13.461,0-24.374-11.048-24.374-24.674
				c0-13.625,10.913-24.673,24.374-24.673c13.459,0,24.375,11.048,24.375,24.673C118.609,274.801,107.694,285.849,94.235,285.849z
				 M164.744,285.849c-13.459,0-24.372-11.048-24.372-24.674c0-13.625,10.913-24.673,24.372-24.673
				c13.463,0,24.374,11.048,24.374,24.673C189.118,274.801,178.207,285.849,164.744,285.849z M235.252,285.849
				c-13.454,0-24.369-11.048-24.369-24.674c0-13.625,10.915-24.673,24.369-24.673c13.466,0,24.377,11.048,24.377,24.673
				C259.629,274.801,248.718,285.849,235.252,285.849z M305.768,285.849c-13.459,0-24.372-11.048-24.372-24.674
				c0-13.625,10.913-24.673,24.372-24.673c13.461,0,24.371,11.048,24.371,24.673C330.139,274.801,319.229,285.849,305.768,285.849z"
				/>
			<path style="fill:#5D505B;" d="M94.459,246.376c-7.931,0-14.359,6.512-14.359,14.54c0,8.027,6.428,14.539,14.359,14.539
				c7.927,0,14.36-6.512,14.36-14.539C108.819,252.888,102.386,246.376,94.459,246.376z"/>
			<path style="fill:#5D505B;" d="M165.032,246.376c-7.932,0-14.362,6.512-14.362,14.54c0,8.027,6.43,14.539,14.362,14.539
				c7.931,0,14.355-6.512,14.355-14.539C179.387,252.888,172.963,246.376,165.032,246.376z"/>
			<path style="fill:#5D505B;" d="M235.6,246.376c-7.927,0-14.357,6.512-14.357,14.54c0,8.027,6.431,14.539,14.357,14.539
				c7.934,0,14.366-6.512,14.366-14.539C249.966,252.888,243.533,246.376,235.6,246.376z"/>
			<path style="fill:#5D505B;" d="M306.179,246.376c-7.932,0-14.362,6.512-14.362,14.54c0,8.027,6.431,14.539,14.362,14.539
				c7.927,0,14.355-6.512,14.355-14.539C320.534,252.888,314.105,246.376,306.179,246.376z"/>
		</g>
		<path style="fill:#5D505B;" d="M108.632,81.816l0.872-2.823c0.144-0.466-0.113-0.961-0.576-1.107
			c-1.08-0.341-2.194-0.516-3.317-0.516c-4.875,0-9.132,3.168-10.588,7.883c-0.886,2.866-0.615,5.906,0.759,8.566
			c1.376,2.658,3.689,4.615,6.521,5.51c0.086,0.027,0.172,0.042,0.259,0.042c0.14,0,0.282-0.035,0.407-0.1
			c0.206-0.11,0.36-0.298,0.43-0.521l0.98-3.179l95.711,26.531V107.17L108.632,81.816z"/>
		<path style="opacity:0.28;fill:#534551;enable-background:new    ;" d="M349.316,262.721c0-20.522-16.44-37.168-36.718-37.168
			h-6.831v-7.393h17.436c0.904,0,1.633-0.738,1.633-1.65v-11.776v-43.291c0-0.914-0.729-1.651-1.633-1.651h-31.822v-6.104h6.312
			c2.25,0,4.076-1.851,4.076-4.132c0-11.187-3.528-21.547-9.505-30.028c-0.006-0.006-0.01-0.015-0.017-0.023
			c-1.474-2.088-3.095-4.062-4.849-5.904c-0.017-0.017-0.03-0.031-0.047-0.048c-1.761-1.844-3.65-3.555-5.661-5.119
			c-0.007-0.004-0.013-0.01-0.019-0.015c-1-0.774-2.025-1.513-3.081-2.215c-0.03-0.021-0.063-0.042-0.096-0.062
			c-2.086-1.38-4.277-2.61-6.559-3.676c-0.082-0.038-0.164-0.075-0.246-0.112c-2.25-1.037-4.584-1.911-6.992-2.613
			c-0.108-0.031-0.216-0.06-0.322-0.091c-2.408-0.685-4.887-1.193-7.424-1.516c-0.104-0.013-0.21-0.027-0.316-0.04
			c-1.995-0.242-4.022-0.379-6.081-0.379c-13.403,0-25.614,5.248-34.753,13.81l-15.712-4.355v14.932l6.058,1.68
			c-2.961,5.208-5.032,10.996-6.058,17.134v11.006c0.736,1.066,1.954,1.765,3.335,1.765h5.123v6.104h-8.458v140.1h112.508
			C332.876,299.892,349.316,283.251,349.316,262.721z"/>
	</g>
</g>
<g>
</g>
<g>
</g>
<g>
</g>
<g>
</g>
<g>
</g>
<g>
</g>
<g>
</g>
<g>
</g>
<g>
</g>
<g>
</g>
<g>
</g>
<g>
</g>
<g>
</g>
<g>
</g>
<g>
</g>
</svg>
